<mxfile host="app.diagrams.net" agent="Mozilla/5.0 (X11; Linux x86_64) AppleWebKit/537.36 (KHTML, like Gecko) Chrome/131.0.0.0 Safari/537.36" version="24.7.16">
  <diagram name="Page-1" id="metHi5gJ-vHEpH_oVCo6">
    <mxGraphModel dx="1687" dy="880" grid="1" gridSize="10" guides="1" tooltips="1" connect="1" arrows="1" fold="1" page="1" pageScale="1" pageWidth="850" pageHeight="1100" math="0" shadow="0">
      <root>
        <mxCell id="0" />
        <mxCell id="1" parent="0" />
        <mxCell id="rl5C-Pt4WXxe1hJjWjED-1" value="Đặt sân pickle ball" style="rounded=1;whiteSpace=wrap;html=1;" vertex="1" parent="1">
          <mxGeometry x="365" y="70" width="120" height="60" as="geometry" />
        </mxCell>
        <mxCell id="rl5C-Pt4WXxe1hJjWjED-2" value="Admin" style="rounded=1;whiteSpace=wrap;html=1;" vertex="1" parent="1">
          <mxGeometry x="150" y="210" width="120" height="60" as="geometry" />
        </mxCell>
        <mxCell id="rl5C-Pt4WXxe1hJjWjED-3" value="Chủ sân" style="rounded=1;whiteSpace=wrap;html=1;" vertex="1" parent="1">
          <mxGeometry x="365" y="200" width="120" height="50" as="geometry" />
        </mxCell>
        <mxCell id="rl5C-Pt4WXxe1hJjWjED-4" value="Khách hàng" style="rounded=1;whiteSpace=wrap;html=1;" vertex="1" parent="1">
          <mxGeometry x="600" y="195" width="120" height="60" as="geometry" />
        </mxCell>
        <mxCell id="rl5C-Pt4WXxe1hJjWjED-5" value="" style="endArrow=classic;html=1;rounded=0;exitX=0.5;exitY=1;exitDx=0;exitDy=0;entryX=0.5;entryY=0;entryDx=0;entryDy=0;" edge="1" parent="1" source="rl5C-Pt4WXxe1hJjWjED-1" target="rl5C-Pt4WXxe1hJjWjED-3">
          <mxGeometry width="50" height="50" relative="1" as="geometry">
            <mxPoint x="420" y="120" as="sourcePoint" />
            <mxPoint x="425" y="210" as="targetPoint" />
          </mxGeometry>
        </mxCell>
        <mxCell id="rl5C-Pt4WXxe1hJjWjED-7" value="" style="endArrow=classic;html=1;rounded=0;" edge="1" parent="1" source="rl5C-Pt4WXxe1hJjWjED-1" target="rl5C-Pt4WXxe1hJjWjED-2">
          <mxGeometry width="50" height="50" relative="1" as="geometry">
            <mxPoint x="400" y="290" as="sourcePoint" />
            <mxPoint x="450" y="240" as="targetPoint" />
          </mxGeometry>
        </mxCell>
        <mxCell id="rl5C-Pt4WXxe1hJjWjED-8" value="" style="endArrow=classic;html=1;rounded=0;exitX=0.933;exitY=0.967;exitDx=0;exitDy=0;exitPerimeter=0;entryX=0.008;entryY=0.133;entryDx=0;entryDy=0;entryPerimeter=0;" edge="1" parent="1" source="rl5C-Pt4WXxe1hJjWjED-1" target="rl5C-Pt4WXxe1hJjWjED-4">
          <mxGeometry width="50" height="50" relative="1" as="geometry">
            <mxPoint x="400" y="290" as="sourcePoint" />
            <mxPoint x="450" y="240" as="targetPoint" />
          </mxGeometry>
        </mxCell>
        <mxCell id="rl5C-Pt4WXxe1hJjWjED-9" value="Đặt sân" style="rounded=1;whiteSpace=wrap;html=1;" vertex="1" parent="1">
          <mxGeometry x="670" y="490" width="120" height="60" as="geometry" />
        </mxCell>
        <mxCell id="rl5C-Pt4WXxe1hJjWjED-10" value="Duyệt yêu cầu đặt sân" style="rounded=1;whiteSpace=wrap;html=1;" vertex="1" parent="1">
          <mxGeometry x="420" y="320" width="120" height="60" as="geometry" />
        </mxCell>
        <mxCell id="rl5C-Pt4WXxe1hJjWjED-11" value="Duyệt yêu cầu đăng ký sân" style="rounded=1;whiteSpace=wrap;html=1;" vertex="1" parent="1">
          <mxGeometry x="180" y="330" width="120" height="60" as="geometry" />
        </mxCell>
        <mxCell id="rl5C-Pt4WXxe1hJjWjED-12" value="Khóa tài khoản người dùng" style="rounded=1;whiteSpace=wrap;html=1;" vertex="1" parent="1">
          <mxGeometry x="180" y="410" width="120" height="40" as="geometry" />
        </mxCell>
        <mxCell id="rl5C-Pt4WXxe1hJjWjED-13" value="Quản lý slot đặt sân." style="rounded=1;whiteSpace=wrap;html=1;" vertex="1" parent="1">
          <mxGeometry x="420" y="410" width="120" height="60" as="geometry" />
        </mxCell>
        <mxCell id="rl5C-Pt4WXxe1hJjWjED-14" value="Quản lý giá sân" style="rounded=1;whiteSpace=wrap;html=1;" vertex="1" parent="1">
          <mxGeometry x="425" y="580" width="120" height="60" as="geometry" />
        </mxCell>
        <mxCell id="rl5C-Pt4WXxe1hJjWjED-15" value="Hủy đặt sân" style="rounded=1;whiteSpace=wrap;html=1;" vertex="1" parent="1">
          <mxGeometry x="670" y="590" width="120" height="60" as="geometry" />
        </mxCell>
        <mxCell id="rl5C-Pt4WXxe1hJjWjED-16" value="Tìm kiếm cụm sân" style="rounded=1;whiteSpace=wrap;html=1;" vertex="1" parent="1">
          <mxGeometry x="670" y="320" width="120" height="60" as="geometry" />
        </mxCell>
        <mxCell id="rl5C-Pt4WXxe1hJjWjED-17" value="Xem chi tiết cụm sân" style="rounded=1;whiteSpace=wrap;html=1;" vertex="1" parent="1">
          <mxGeometry x="670" y="410" width="120" height="60" as="geometry" />
        </mxCell>
        <mxCell id="rl5C-Pt4WXxe1hJjWjED-19" value="Xem lịch đặt sân" style="rounded=1;whiteSpace=wrap;html=1;" vertex="1" parent="1">
          <mxGeometry x="670" y="690" width="120" height="60" as="geometry" />
        </mxCell>
        <mxCell id="rl5C-Pt4WXxe1hJjWjED-20" value="Xem lịch đặt sân" style="rounded=1;whiteSpace=wrap;html=1;" vertex="1" parent="1">
          <mxGeometry x="425" y="770" width="120" height="60" as="geometry" />
        </mxCell>
        <mxCell id="rl5C-Pt4WXxe1hJjWjED-21" value="Xem báo cáo thống kê cụm sân" style="rounded=1;whiteSpace=wrap;html=1;" vertex="1" parent="1">
          <mxGeometry x="410" y="1100" width="120" height="60" as="geometry" />
        </mxCell>
        <mxCell id="rl5C-Pt4WXxe1hJjWjED-23" value="Thêm/ cập nhật/ xóa giá sân" style="rounded=1;whiteSpace=wrap;html=1;" vertex="1" parent="1">
          <mxGeometry x="465" y="670" width="120" height="60" as="geometry" />
        </mxCell>
        <mxCell id="rl5C-Pt4WXxe1hJjWjED-24" value="" style="endArrow=classic;html=1;rounded=0;" edge="1" parent="1" target="rl5C-Pt4WXxe1hJjWjED-23">
          <mxGeometry width="50" height="50" relative="1" as="geometry">
            <mxPoint x="440" y="640" as="sourcePoint" />
            <mxPoint x="445" y="690" as="targetPoint" />
            <Array as="points">
              <mxPoint x="440" y="700" />
            </Array>
          </mxGeometry>
        </mxCell>
        <mxCell id="rl5C-Pt4WXxe1hJjWjED-25" value="Xem lịch đặt sân chưa hoàn thành" style="rounded=1;whiteSpace=wrap;html=1;" vertex="1" parent="1">
          <mxGeometry x="710" y="790" width="120" height="60" as="geometry" />
        </mxCell>
        <mxCell id="rl5C-Pt4WXxe1hJjWjED-26" value="Xem lịch đặt sân đã hoàn thành" style="rounded=1;whiteSpace=wrap;html=1;" vertex="1" parent="1">
          <mxGeometry x="710" y="870" width="120" height="60" as="geometry" />
        </mxCell>
        <mxCell id="rl5C-Pt4WXxe1hJjWjED-27" value="Xem lịch đặt sân bị hủy" style="rounded=1;whiteSpace=wrap;html=1;" vertex="1" parent="1">
          <mxGeometry x="710" y="950" width="120" height="60" as="geometry" />
        </mxCell>
        <mxCell id="rl5C-Pt4WXxe1hJjWjED-29" value="" style="endArrow=classic;html=1;rounded=0;entryX=0;entryY=0.65;entryDx=0;entryDy=0;entryPerimeter=0;" edge="1" parent="1" target="rl5C-Pt4WXxe1hJjWjED-25">
          <mxGeometry width="50" height="50" relative="1" as="geometry">
            <mxPoint x="680" y="750" as="sourcePoint" />
            <mxPoint x="720" y="850" as="targetPoint" />
            <Array as="points">
              <mxPoint x="680" y="829" />
            </Array>
          </mxGeometry>
        </mxCell>
        <mxCell id="rl5C-Pt4WXxe1hJjWjED-30" value="" style="endArrow=classic;html=1;rounded=0;" edge="1" parent="1" target="rl5C-Pt4WXxe1hJjWjED-26">
          <mxGeometry width="50" height="50" relative="1" as="geometry">
            <mxPoint x="680" y="830" as="sourcePoint" />
            <mxPoint x="510" y="870" as="targetPoint" />
            <Array as="points">
              <mxPoint x="680" y="900" />
            </Array>
          </mxGeometry>
        </mxCell>
        <mxCell id="rl5C-Pt4WXxe1hJjWjED-31" value="" style="endArrow=classic;html=1;rounded=0;entryX=0;entryY=0.5;entryDx=0;entryDy=0;" edge="1" parent="1" target="rl5C-Pt4WXxe1hJjWjED-27">
          <mxGeometry width="50" height="50" relative="1" as="geometry">
            <mxPoint x="680" y="900" as="sourcePoint" />
            <mxPoint x="510" y="870" as="targetPoint" />
            <Array as="points">
              <mxPoint x="680" y="980" />
            </Array>
          </mxGeometry>
        </mxCell>
        <mxCell id="rl5C-Pt4WXxe1hJjWjED-32" value="Xem lịch đặt sân chưa hoàn thành" style="rounded=1;whiteSpace=wrap;html=1;" vertex="1" parent="1">
          <mxGeometry x="465" y="860" width="120" height="60" as="geometry" />
        </mxCell>
        <mxCell id="rl5C-Pt4WXxe1hJjWjED-33" value="Xem lịch đặt sân đã hoàn thành" style="rounded=1;whiteSpace=wrap;html=1;" vertex="1" parent="1">
          <mxGeometry x="465" y="940" width="120" height="60" as="geometry" />
        </mxCell>
        <mxCell id="rl5C-Pt4WXxe1hJjWjED-34" value="Xem lịch đặt sân bị hủy" style="rounded=1;whiteSpace=wrap;html=1;" vertex="1" parent="1">
          <mxGeometry x="465" y="1020" width="120" height="60" as="geometry" />
        </mxCell>
        <mxCell id="rl5C-Pt4WXxe1hJjWjED-35" value="" style="endArrow=classic;html=1;rounded=0;entryX=0;entryY=0.65;entryDx=0;entryDy=0;entryPerimeter=0;" edge="1" parent="1" target="rl5C-Pt4WXxe1hJjWjED-32">
          <mxGeometry width="50" height="50" relative="1" as="geometry">
            <mxPoint x="435" y="830" as="sourcePoint" />
            <mxPoint x="475" y="920" as="targetPoint" />
            <Array as="points">
              <mxPoint x="435" y="899" />
            </Array>
          </mxGeometry>
        </mxCell>
        <mxCell id="rl5C-Pt4WXxe1hJjWjED-36" value="" style="endArrow=classic;html=1;rounded=0;" edge="1" parent="1" target="rl5C-Pt4WXxe1hJjWjED-33">
          <mxGeometry width="50" height="50" relative="1" as="geometry">
            <mxPoint x="435" y="900" as="sourcePoint" />
            <mxPoint x="265" y="940" as="targetPoint" />
            <Array as="points">
              <mxPoint x="435" y="970" />
            </Array>
          </mxGeometry>
        </mxCell>
        <mxCell id="rl5C-Pt4WXxe1hJjWjED-37" value="" style="endArrow=classic;html=1;rounded=0;entryX=0;entryY=0.5;entryDx=0;entryDy=0;" edge="1" parent="1" target="rl5C-Pt4WXxe1hJjWjED-34">
          <mxGeometry width="50" height="50" relative="1" as="geometry">
            <mxPoint x="435" y="970" as="sourcePoint" />
            <mxPoint x="265" y="940" as="targetPoint" />
            <Array as="points">
              <mxPoint x="435" y="1050" />
            </Array>
          </mxGeometry>
        </mxCell>
        <mxCell id="rl5C-Pt4WXxe1hJjWjED-39" value="" style="endArrow=classic;html=1;rounded=0;entryX=0;entryY=0.5;entryDx=0;entryDy=0;" edge="1" parent="1" target="rl5C-Pt4WXxe1hJjWjED-10">
          <mxGeometry width="50" height="50" relative="1" as="geometry">
            <mxPoint x="380" y="251" as="sourcePoint" />
            <mxPoint x="450" y="120" as="targetPoint" />
            <Array as="points">
              <mxPoint x="380" y="300" />
              <mxPoint x="380" y="350" />
            </Array>
          </mxGeometry>
        </mxCell>
        <mxCell id="rl5C-Pt4WXxe1hJjWjED-40" value="" style="endArrow=classic;html=1;rounded=0;" edge="1" parent="1">
          <mxGeometry width="50" height="50" relative="1" as="geometry">
            <mxPoint x="380" y="350" as="sourcePoint" />
            <mxPoint x="420" y="440" as="targetPoint" />
            <Array as="points">
              <mxPoint x="380" y="390" />
              <mxPoint x="380" y="440" />
            </Array>
          </mxGeometry>
        </mxCell>
        <mxCell id="rl5C-Pt4WXxe1hJjWjED-41" value="" style="endArrow=classic;html=1;rounded=0;entryX=0;entryY=0.5;entryDx=0;entryDy=0;" edge="1" parent="1">
          <mxGeometry width="50" height="50" relative="1" as="geometry">
            <mxPoint x="380" y="440" as="sourcePoint" />
            <mxPoint x="425" y="610" as="targetPoint" />
            <Array as="points">
              <mxPoint x="380" y="610" />
            </Array>
          </mxGeometry>
        </mxCell>
        <mxCell id="rl5C-Pt4WXxe1hJjWjED-42" value="Cập nhật thông tin sân" style="rounded=1;whiteSpace=wrap;html=1;" vertex="1" parent="1">
          <mxGeometry x="410" y="1190" width="120" height="60" as="geometry" />
        </mxCell>
        <mxCell id="rl5C-Pt4WXxe1hJjWjED-43" value="" style="endArrow=classic;html=1;rounded=0;entryX=0;entryY=0.5;entryDx=0;entryDy=0;" edge="1" parent="1">
          <mxGeometry width="50" height="50" relative="1" as="geometry">
            <mxPoint x="380" y="600" as="sourcePoint" />
            <mxPoint x="425" y="800" as="targetPoint" />
            <Array as="points">
              <mxPoint x="380" y="800" />
            </Array>
          </mxGeometry>
        </mxCell>
        <mxCell id="rl5C-Pt4WXxe1hJjWjED-46" value="" style="edgeStyle=none;orthogonalLoop=1;jettySize=auto;html=1;rounded=0;entryX=0;entryY=0.5;entryDx=0;entryDy=0;" edge="1" parent="1" target="rl5C-Pt4WXxe1hJjWjED-21">
          <mxGeometry width="100" relative="1" as="geometry">
            <mxPoint x="380" y="800" as="sourcePoint" />
            <mxPoint x="240" y="980" as="targetPoint" />
            <Array as="points">
              <mxPoint x="380" y="1130" />
            </Array>
          </mxGeometry>
        </mxCell>
        <mxCell id="rl5C-Pt4WXxe1hJjWjED-47" value="" style="edgeStyle=none;orthogonalLoop=1;jettySize=auto;html=1;rounded=0;entryX=0;entryY=0.5;entryDx=0;entryDy=0;exitX=0.075;exitY=0.967;exitDx=0;exitDy=0;exitPerimeter=0;" edge="1" parent="1" source="rl5C-Pt4WXxe1hJjWjED-2" target="rl5C-Pt4WXxe1hJjWjED-11">
          <mxGeometry width="100" relative="1" as="geometry">
            <mxPoint x="-30" y="540" as="sourcePoint" />
            <mxPoint x="70" y="540" as="targetPoint" />
            <Array as="points">
              <mxPoint x="160" y="360" />
            </Array>
          </mxGeometry>
        </mxCell>
        <mxCell id="rl5C-Pt4WXxe1hJjWjED-49" value="" style="edgeStyle=none;orthogonalLoop=1;jettySize=auto;html=1;rounded=0;entryX=0;entryY=0.5;entryDx=0;entryDy=0;" edge="1" parent="1">
          <mxGeometry width="100" relative="1" as="geometry">
            <mxPoint x="160" y="352" as="sourcePoint" />
            <mxPoint x="180" y="429.0000000000001" as="targetPoint" />
            <Array as="points">
              <mxPoint x="160" y="429" />
            </Array>
          </mxGeometry>
        </mxCell>
        <mxCell id="rl5C-Pt4WXxe1hJjWjED-50" value="" style="edgeStyle=none;orthogonalLoop=1;jettySize=auto;html=1;rounded=0;entryX=0;entryY=0.5;entryDx=0;entryDy=0;" edge="1" parent="1" target="rl5C-Pt4WXxe1hJjWjED-42">
          <mxGeometry width="100" relative="1" as="geometry">
            <mxPoint x="380" y="1130" as="sourcePoint" />
            <mxPoint x="360" y="1130" as="targetPoint" />
            <Array as="points">
              <mxPoint x="380" y="1220" />
            </Array>
          </mxGeometry>
        </mxCell>
        <mxCell id="rl5C-Pt4WXxe1hJjWjED-51" value="" style="endArrow=classic;html=1;rounded=0;entryX=0;entryY=0.5;entryDx=0;entryDy=0;" edge="1" parent="1">
          <mxGeometry width="50" height="50" relative="1" as="geometry">
            <mxPoint x="630" y="255" as="sourcePoint" />
            <mxPoint x="670" y="354" as="targetPoint" />
            <Array as="points">
              <mxPoint x="630" y="304" />
              <mxPoint x="630" y="354" />
            </Array>
          </mxGeometry>
        </mxCell>
        <mxCell id="rl5C-Pt4WXxe1hJjWjED-52" value="" style="endArrow=classic;html=1;rounded=0;" edge="1" parent="1">
          <mxGeometry width="50" height="50" relative="1" as="geometry">
            <mxPoint x="630" y="354" as="sourcePoint" />
            <mxPoint x="670" y="444" as="targetPoint" />
            <Array as="points">
              <mxPoint x="630" y="394" />
              <mxPoint x="630" y="444" />
            </Array>
          </mxGeometry>
        </mxCell>
        <mxCell id="rl5C-Pt4WXxe1hJjWjED-53" value="" style="endArrow=classic;html=1;rounded=0;" edge="1" parent="1">
          <mxGeometry width="50" height="50" relative="1" as="geometry">
            <mxPoint x="630" y="444" as="sourcePoint" />
            <mxPoint x="670" y="524" as="targetPoint" />
            <Array as="points">
              <mxPoint x="630" y="524" />
            </Array>
          </mxGeometry>
        </mxCell>
        <mxCell id="rl5C-Pt4WXxe1hJjWjED-54" value="" style="endArrow=classic;html=1;rounded=0;entryX=0.017;entryY=0.394;entryDx=0;entryDy=0;entryPerimeter=0;" edge="1" parent="1" target="rl5C-Pt4WXxe1hJjWjED-19">
          <mxGeometry width="50" height="50" relative="1" as="geometry">
            <mxPoint x="630" y="514" as="sourcePoint" />
            <mxPoint x="670" y="712" as="targetPoint" />
            <Array as="points">
              <mxPoint x="630" y="714" />
            </Array>
          </mxGeometry>
        </mxCell>
        <mxCell id="rl5C-Pt4WXxe1hJjWjED-55" value="" style="edgeStyle=none;orthogonalLoop=1;jettySize=auto;html=1;rounded=0;entryX=0;entryY=0.5;entryDx=0;entryDy=0;" edge="1" parent="1" target="rl5C-Pt4WXxe1hJjWjED-15">
          <mxGeometry width="100" relative="1" as="geometry">
            <mxPoint x="630" y="715" as="sourcePoint" />
            <mxPoint x="660" y="1045" as="targetPoint" />
            <Array as="points">
              <mxPoint x="630" y="620" />
            </Array>
          </mxGeometry>
        </mxCell>
        <mxCell id="rl5C-Pt4WXxe1hJjWjED-56" value="" style="edgeStyle=none;orthogonalLoop=1;jettySize=auto;html=1;rounded=0;entryX=0;entryY=0.5;entryDx=0;entryDy=0;" edge="1" parent="1">
          <mxGeometry width="100" relative="1" as="geometry">
            <mxPoint x="630" y="710" as="sourcePoint" />
            <mxPoint x="660" y="1134" as="targetPoint" />
            <Array as="points">
              <mxPoint x="630" y="1134" />
            </Array>
          </mxGeometry>
        </mxCell>
        <mxCell id="rl5C-Pt4WXxe1hJjWjED-57" value="Cập nhật thông tin người dùng" style="rounded=1;whiteSpace=wrap;html=1;" vertex="1" parent="1">
          <mxGeometry x="710" y="1210" width="120" height="50" as="geometry" />
        </mxCell>
        <mxCell id="rl5C-Pt4WXxe1hJjWjED-58" value="Quản lý tài khoản" style="rounded=1;whiteSpace=wrap;html=1;" vertex="1" parent="1">
          <mxGeometry x="660" y="1100" width="120" height="60" as="geometry" />
        </mxCell>
        <mxCell id="rl5C-Pt4WXxe1hJjWjED-59" value="" style="edgeStyle=none;orthogonalLoop=1;jettySize=auto;html=1;rounded=0;entryX=0;entryY=0.5;entryDx=0;entryDy=0;exitX=0.25;exitY=1;exitDx=0;exitDy=0;" edge="1" parent="1" source="rl5C-Pt4WXxe1hJjWjED-58" target="rl5C-Pt4WXxe1hJjWjED-57">
          <mxGeometry width="100" relative="1" as="geometry">
            <mxPoint x="630" y="1130" as="sourcePoint" />
            <mxPoint x="430" y="1250" as="targetPoint" />
            <Array as="points">
              <mxPoint x="690" y="1235" />
            </Array>
          </mxGeometry>
        </mxCell>
        <mxCell id="rl5C-Pt4WXxe1hJjWjED-60" value="Khóa tài khoản" style="rounded=1;whiteSpace=wrap;html=1;" vertex="1" parent="1">
          <mxGeometry x="710" y="1290" width="110" height="40" as="geometry" />
        </mxCell>
        <mxCell id="rl5C-Pt4WXxe1hJjWjED-61" value="" style="endArrow=classic;html=1;rounded=0;entryX=0;entryY=0.5;entryDx=0;entryDy=0;" edge="1" parent="1" target="rl5C-Pt4WXxe1hJjWjED-60">
          <mxGeometry width="50" height="50" relative="1" as="geometry">
            <mxPoint x="690" y="1230" as="sourcePoint" />
            <mxPoint x="390" y="1150" as="targetPoint" />
            <Array as="points">
              <mxPoint x="690" y="1310" />
            </Array>
          </mxGeometry>
        </mxCell>
        <mxCell id="rl5C-Pt4WXxe1hJjWjED-62" value="Đánh giá sân" style="rounded=1;whiteSpace=wrap;html=1;" vertex="1" parent="1">
          <mxGeometry x="660" y="1020" width="120" height="60" as="geometry" />
        </mxCell>
        <mxCell id="rl5C-Pt4WXxe1hJjWjED-63" value="" style="endArrow=classic;html=1;rounded=0;entryX=0;entryY=0.5;entryDx=0;entryDy=0;" edge="1" parent="1" target="rl5C-Pt4WXxe1hJjWjED-62">
          <mxGeometry width="50" height="50" relative="1" as="geometry">
            <mxPoint x="630" y="1050" as="sourcePoint" />
            <mxPoint x="390" y="1150" as="targetPoint" />
          </mxGeometry>
        </mxCell>
        <mxCell id="rl5C-Pt4WXxe1hJjWjED-64" value="Thêm/ cập nhật/ xóa slot đặt sân" style="rounded=1;whiteSpace=wrap;html=1;" vertex="1" parent="1">
          <mxGeometry x="465" y="490" width="120" height="60" as="geometry" />
        </mxCell>
        <mxCell id="rl5C-Pt4WXxe1hJjWjED-65" value="" style="endArrow=classic;html=1;rounded=0;entryX=0;entryY=0.5;entryDx=0;entryDy=0;exitX=0.079;exitY=0.951;exitDx=0;exitDy=0;exitPerimeter=0;" edge="1" parent="1" source="rl5C-Pt4WXxe1hJjWjED-13" target="rl5C-Pt4WXxe1hJjWjED-64">
          <mxGeometry width="50" height="50" relative="1" as="geometry">
            <mxPoint x="530" y="540" as="sourcePoint" />
            <mxPoint x="580" y="490" as="targetPoint" />
            <Array as="points">
              <mxPoint x="430" y="520" />
            </Array>
          </mxGeometry>
        </mxCell>
      </root>
    </mxGraphModel>
  </diagram>
</mxfile>
